<?xml version="1.0" standalone="no"?>
<!DOCTYPE svg PUBLIC "-//W3C//DTD SVG 20010904//EN"
 "http://www.w3.org/TR/2001/REC-SVG-20010904/DTD/svg10.dtd">
<svg version="1.0" xmlns="http://www.w3.org/2000/svg"
 width="165.000000pt" height="165.000000pt" viewBox="0 0 165.000000 165.000000"
 preserveAspectRatio="xMidYMid meet">
<metadata>
Created by potrace 1.11, written by Peter Selinger 2001-2013
</metadata>
<g transform="translate(0.000000,165.000000) scale(0.100000,-0.100000)"
fill="#000000" stroke="none">
<path d="M822 1590 c2 -27 -16 -49 -182 -218 -102 -103 -254 -257 -338 -343
-83 -85 -152 -152 -152 -147 0 13 -17 9 -34 -7 -8 -8 -19 -15 -25 -15 -6 0
-11 -18 -11 -40 0 -22 4 -40 9 -40 5 0 19 -17 31 -37 12 -21 171 -184 353
-363 181 -179 338 -338 349 -355 10 -17 18 -23 18 -15 0 8 157 172 349 365
373 374 379 383 368 468 -3 22 -19 59 -34 81 -23 32 -35 41 -57 40 -21 -1 -42
12 -84 51 -48 45 -53 52 -31 50 17 -1 23 -7 21 -20 -3 -13 1 -16 13 -11 9 3
13 2 10 -3 -3 -5 0 -13 6 -17 7 -4 9 -3 5 4 -3 5 -2 12 3 14 12 4 -562 588
-578 588 -8 0 -11 -11 -9 -30z m56 -152 c31 -33 19 -38 -15 -6 -17 16 -23 31
-21 62 1 41 1 41 5 6 3 -20 16 -47 31 -62z m-40 -485 c2 -7 -3 -13 -11 -13
-10 0 -19 -22 -30 -72 l-15 -73 -1 68 c-1 60 -3 67 -21 67 -11 0 -20 -6 -21
-12 0 -10 -2 -10 -6 0 -2 6 -11 12 -19 12 -11 0 -14 -17 -14 -75 0 -60 3 -75
15 -75 8 0 16 8 16 18 1 15 2 15 6 1 5 -22 73 -21 91 0 12 14 13 13 9 -7 -4
-19 -2 -22 13 -17 10 3 21 1 25 -5 4 -7 -77 -10 -255 -10 -176 0 -259 3 -255
10 4 6 12 10 18 9 43 -5 47 0 47 57 0 51 -2 56 -20 51 -11 -3 -18 -2 -15 3 6
10 -51 7 -61 -3 -12 -12 -24 -8 -18 6 5 14 126 36 339 62 129 15 177 15 183
-2z m672 -76 c0 -7 -6 -3 -12 8 -6 11 -16 27 -22 35 -6 9 -1 5 12 -8 12 -13
22 -28 22 -35z m-620 13 c5 0 10 -22 10 -51 0 -59 -14 -58 -24 3 -4 24 -9 54
-12 68 -4 24 -4 24 5 3 6 -13 15 -23 21 -23z m77 8 c-3 -8 -6 -5 -6 6 -1 11 2
17 5 13 3 -3 4 -12 1 -19z m491 -146 c9 -6 -81 -102 -303 -323 -174 -173 -317
-315 -319 -316 -1 -1 -2 16 -1 39 1 40 7 47 290 324 158 156 295 284 304 284
9 0 22 -4 29 -8z m-705 -29 c-67 -2 -179 -2 -250 0 -70 1 -15 3 122 3 138 0
195 -2 128 -3z m67 -636 c0 -17 -246 224 -279 273 -13 19 44 -32 128 -115 83
-82 151 -153 151 -158z"/>
<path d="M613 914 c-16 -7 -18 -120 -3 -129 6 -4 17 -1 25 5 11 9 15 9 15 1 0
-6 6 -11 14 -11 10 0 13 16 12 68 -1 64 -2 67 -26 69 -14 1 -31 -1 -37 -3z"/>
<path d="M527 903 c-4 -3 -7 -33 -7 -65 l0 -59 32 3 c39 4 48 25 16 37 -17 7
-18 10 -5 10 9 1 17 8 17 16 0 8 -8 15 -17 15 -15 0 -14 3 5 18 13 10 20 21
16 25 -9 9 -48 9 -57 0z"/>
<path d="M444 889 c-3 -6 -1 -16 5 -22 6 -6 11 -28 11 -49 0 -27 4 -38 15 -38
11 0 15 12 15 45 0 25 5 45 10 45 6 0 10 7 10 15 0 18 -55 21 -66 4z"/>
<path d="M1433 996 c6 -12 17 -23 24 -23 20 0 15 13 -11 30 -23 15 -23 15 -13
-7z"/>
<path d="M1014 75 c-8 -21 18 -75 36 -75 19 0 43 51 34 74 -8 20 -62 22 -70 1z
m13 -27 c-3 -8 -6 -5 -6 6 -1 11 2 17 5 13 3 -3 4 -12 1 -19z"/>
</g>
</svg>
